<svg xmlns="http://www.w3.org/2000/svg" width="132" height="131" fill="none" viewBox="0 0 132 131"><g clip-path="url(#clip0)"><path fill="#fff" d="M98.1142 47.865C96.7075 47.865 95.5667 48.9971 95.5667 50.3917C95.5667 51.7863 96.7075 52.9184 98.1142 52.9184C99.5238 52.9184 100.663 51.7863 100.663 50.3917C100.663 48.9971 99.5238 47.865 98.1142 47.865Z"/><path fill="#fff" d="M36.4346 117.598C36.4346 118.993 35.2927 120.124 33.886 120.124C32.4784 120.124 31.3375 118.993 31.3375 117.598C31.3375 116.203 32.4784 115.071 33.886 115.071C35.2927 115.071 36.4346 116.203 36.4346 117.598Z"/><path fill="#fff" d="M131.233 108.617C131.233 108.599 131.232 108.581 131.231 108.563C131.105 105.781 127.362 97.3728 120.332 95.464C96.9129 89.0988 91.6078 86.2473 63.7635 70.6271C58.4365 66.9189 50.2723 67.5822 45.4909 72.1372C43.916 73.6364 42.1072 74.8455 40.1142 75.7318C29.5936 80.4161 21.7042 74.0056 19.7341 73.3966C18.5853 72.8281 17.1876 73.1952 16.4748 74.2553C16.0448 75.1683 6.08968 86.9945 5.8637 106.876L1.89958 114.738C-1.6285 121.713 3.41873 130.229 11.552 130.229H113.467C123.3 130.229 131.256 122.332 131.241 112.581L131.236 108.678C131.236 108.657 131.234 108.637 131.233 108.617ZM60.9053 74.812C61.0557 74.9186 60.9014 74.8277 63.6669 76.3773L62.3867 78.1924C61.5793 79.3364 61.86 80.9116 63.0128 81.7111C64.1636 82.5096 65.7535 82.2352 66.5618 81.0903L68.1268 78.8715C69.7027 79.7509 71.2019 80.5829 72.6285 81.3706L70.8983 83.8183C70.0909 84.9603 70.3706 86.5365 71.5234 87.337C72.6782 88.1394 74.2671 87.8581 75.0724 86.7172L77.1162 83.8262C78.713 84.6908 80.2242 85.4972 81.6667 86.2523L79.6538 89.1018C78.8464 90.2437 79.1271 91.82 80.2789 92.6204C81.4317 93.4209 83.0206 93.1435 83.8289 92.0006L86.242 88.5846C88.7557 89.8282 91.1131 90.9238 93.4555 91.9295C89.6457 97.1744 82.5587 98.7408 76.8912 95.5607C73.7255 93.7841 46.2564 78.0414 46.2564 78.0414C47.2291 77.3584 48.1549 76.6073 49.021 75.7822C52.0433 72.9021 57.5973 72.4491 60.9053 74.812ZM61.9158 115.07H53.3972C51.3544 115.07 49.4341 114.281 47.9896 112.849L43.7697 108.665C41.3625 106.279 38.162 104.964 34.7593 104.964H11.0224C11.1329 102.858 11.3738 100.702 11.7452 98.5572C13.9014 99.4475 16.221 99.9114 18.5962 99.9114C23.0183 99.9114 27.2592 98.2957 30.5394 95.3623C31.4702 94.5293 32.6916 94.3437 33.6503 94.8876L60.6336 110.22C61.424 110.67 61.9158 111.511 61.9158 112.413V115.07ZM113.467 125.176H11.552C7.27533 125.176 4.59044 120.695 6.45702 117L9.97813 110.017H34.7593C36.8011 110.017 38.7214 110.806 40.1659 112.238L44.3859 116.422C46.793 118.809 49.9936 120.123 53.3972 120.123H118.487C120.702 120.123 122.802 119.565 124.636 118.566C122.494 122.498 118.31 125.176 113.467 125.176ZM125.916 109.291C125.082 112.694 122.027 115.07 118.488 115.07H67.0128V112.413C67.0128 109.707 65.5414 107.189 63.1701 105.837L36.1839 90.5033C33.3228 88.8787 29.6822 89.3238 27.1248 91.6107C24.7833 93.7051 21.754 94.8579 18.5953 94.8579C16.5853 94.8579 14.6311 94.3941 12.8611 93.5087C15.3907 84.1273 19.1408 79.5042 19.4683 78.9139C20.3623 79.1706 29.29 85.3136 40.9733 80.8494C40.9733 80.8494 71.1949 98.1693 74.3806 99.9578C77.154 101.514 80.1704 102.26 83.148 102.26C88.7766 102.26 94.2698 99.5936 97.7342 94.6882L98.2996 93.8887C104.548 96.2644 111.155 98.2078 118.986 100.337C122.31 101.24 125.154 105.263 126.062 108.691C125.979 109.034 125.916 109.291 125.916 109.291Z"/><path fill="#fff" d="M23.6933 115.071H13.5003C12.0926 115.071 10.9518 116.203 10.9518 117.598C10.9518 118.993 12.0926 120.124 13.5003 120.124H23.6933C25.1 120.124 26.2418 118.993 26.2418 117.598C26.2418 116.203 25.1009 115.071 23.6933 115.071Z"/><path fill="#fff" d="M130.103 47.5304L126.135 39.666C125.907 19.6941 115.961 7.97939 115.523 7.04569C114.811 5.98566 113.412 5.6175 112.265 6.187C110.299 6.79006 102.472 13.1177 92.008 8.45217C89.9642 7.54117 88.1145 6.30446 86.5088 4.77362C81.7274 0.219603 73.5642 -0.442674 68.2352 3.26548C51.3315 12.7476 42.8448 17.5079 33.6483 21.221C27.8534 23.5592 21.6903 25.5312 11.6665 28.2534C5.27432 29.9895 0.900062 37.8371 0.765668 41.4091C0.764672 41.4288 0.762681 41.4476 0.762681 41.4683L0.757704 45.3709C0.745758 55.1215 8.69688 63.0194 18.5345 63.0194H120.447C128.588 63.0194 133.621 54.4858 130.103 47.5304ZM120.255 31.3476C120.625 33.4924 120.867 35.648 120.976 37.7542H97.2394C93.8347 37.7542 90.6352 39.0689 88.232 41.4545L84.0081 45.6403C82.5865 47.0508 80.6174 47.8601 78.6045 47.8601H70.0829V45.2021C70.0829 44.3 70.5747 43.4601 71.3651 43.01L98.3484 27.6779C99.308 27.1321 100.529 27.3187 101.46 28.1527C104.743 31.0851 108.984 32.7008 113.403 32.7008C115.78 32.7018 118.099 32.2369 120.255 31.3476ZM71.0933 7.45036C74.4024 5.08749 79.9564 5.53953 82.9767 8.41664C83.8777 9.27533 84.8433 10.056 85.8597 10.7647C82.034 12.9568 58.2722 26.5755 55.1085 28.3501C49.4231 31.5401 42.3082 29.9549 38.5064 24.6705C40.8538 23.653 43.2062 22.5505 45.7069 21.3029L48.1708 24.79C48.9761 25.9309 50.565 26.2122 51.7198 25.4098C52.8726 24.6094 53.1523 23.0341 52.3449 21.8912L50.2733 18.9588C51.7148 18.1998 53.223 17.3895 54.8178 16.5219L56.9263 19.5066C57.7346 20.6515 59.3244 20.9259 60.4753 20.1274C61.628 19.3269 61.9078 17.7517 61.1004 16.6087L59.3006 14.0593C60.7251 13.2697 62.2224 12.4357 63.7973 11.5553L65.4398 13.8807C66.2482 15.0256 67.838 15.299 68.9888 14.5005C70.1416 13.7 70.4214 12.1248 69.614 10.9818L68.2561 9.05917C71.0923 7.46813 70.939 7.55992 71.0933 7.45036ZM5.93634 41.4792C6.84623 38.0513 9.6894 34.0293 13.0124 33.1272C22.18 30.637 28.2088 28.7518 33.6772 26.6465L34.2645 27.4786C39.5746 34.9965 49.6192 37.237 57.6181 32.7482C60.8018 30.9617 86.1633 16.4261 91.1488 13.5698C102.821 18.0448 111.638 11.959 112.53 11.7043C112.791 12.1741 116.663 17.1259 119.14 26.2981C117.371 27.1844 115.416 27.6483 113.403 27.6483C110.246 27.6483 107.217 26.4945 104.874 24.4011C102.316 22.1132 98.6759 21.6681 95.8138 23.2937L68.8296 38.6277C66.4583 39.9769 64.9859 42.4958 64.9859 45.2021V47.8601H13.5112C9.97213 47.8601 6.91791 45.4844 6.08268 42.0733C6.08268 42.0714 6.01996 41.8187 5.93634 41.4792ZM120.447 57.966H18.5345C13.7053 57.966 9.51021 55.2981 7.36489 51.357C9.19762 52.3549 11.2981 52.9135 13.5122 52.9135H78.6045C81.9593 52.9135 85.2435 51.5633 87.6118 49.2133L91.8358 45.0274C93.2782 43.5963 95.1966 42.8077 97.2394 42.8077H122.022L125.546 49.7936C127.416 53.4929 124.715 57.966 120.447 57.966Z"/><path fill="#fff" d="M118.5 47.865H108.307C106.9 47.865 105.76 48.9961 105.76 50.3917C105.76 51.7863 106.9 52.9184 108.307 52.9184H118.5C119.908 52.9184 121.049 51.7863 121.049 50.3917C121.049 48.9961 119.908 47.865 118.5 47.865Z"/></g><defs><clipPath id="clip0"><rect width="130.483" height="129.368" fill="#fff" transform="translate(0.758301 0.874023)"/></clipPath></defs></svg>