<svg xmlns="http://www.w3.org/2000/svg" width="149" height="149" fill="none" viewBox="0 0 149 149"><g clip-path="url(#clip0)"><path fill="#fff" d="M91.2378 79.9504C89.6518 79.9504 88.3646 81.2376 88.3646 82.8236C88.3646 84.4096 89.6518 85.6967 91.2378 85.6967C92.8266 85.6967 94.1109 84.4096 94.1109 82.8236C94.1109 81.2376 92.8266 79.9504 91.2378 79.9504Z"/><path fill="#fff" d="M79.7451 71.3311C78.1592 71.3311 76.872 72.6182 76.872 74.2042C76.872 75.7902 78.1592 77.0773 79.7451 77.0773C81.334 77.0773 82.6183 75.7902 82.6183 74.2042C82.6183 72.6182 81.334 71.3311 79.7451 71.3311Z"/><path fill="#fff" d="M68.2525 62.7115C66.6665 62.7115 65.3793 63.9987 65.3793 65.5847C65.3793 67.1707 66.6665 68.4579 68.2525 68.4579C69.8414 68.4579 71.1257 67.1707 71.1257 65.5847C71.1257 63.9987 69.8414 62.7115 68.2525 62.7115Z"/><path fill="#fff" d="M19.9145 123.048C19.9145 124.634 21.2017 125.921 22.7876 125.921C24.3736 125.921 25.6608 124.634 25.6608 123.048C25.6608 121.462 24.3736 120.175 22.7876 120.175C21.2017 120.175 19.9145 121.462 19.9145 123.048Z"/><path fill="#fff" d="M138.111 73.2193C131.532 67.5413 122.994 64.9871 114.692 66.216C106.565 67.4129 100.973 64.6472 95.8359 58.4826C89.6963 51.1086 84.9714 39.8039 78.1134 29.5137C77.5808 28.7141 76.6835 28.2337 75.7227 28.2337H67.7123C58.4455 28.2337 55.0417 24.8706 48.2605 18.171C47.1523 17.0758 45.3735 17.0637 44.2507 18.1426C11.0683 50.0134 10.6747 50.3834 10.5377 50.5403C7.10108 54.4926 7.95584 60.5731 12.3455 63.4261C76.9286 112.92 74.0364 110.708 74.1468 110.786C77.5509 113.169 81.5434 114.429 85.6928 114.429H139.438C144.191 114.429 148.057 110.562 148.057 105.809C148.057 101.79 148.057 98.3361 148.057 94.3166C148.057 86.3643 144.432 78.6751 138.111 73.2193ZM46.2183 24.2207C52.3346 30.1679 57.2009 33.98 67.7126 33.98H74.17C75.2317 35.6292 76.2264 37.2781 77.1274 38.8201C66.4237 41.0557 59.7557 38.9103 50.6202 33.8717C49.581 33.2988 48.2973 33.4229 47.3882 34.1848C43.8085 37.1824 38.6871 37.7257 34.5254 35.4519L46.2183 24.2207ZM142.311 105.809C142.311 107.393 141.022 108.682 139.438 108.682H85.6926C82.7481 108.682 79.9132 107.793 77.4908 106.112L15.7435 58.7906C15.6714 58.7357 15.5967 58.6837 15.52 58.6357C14.0426 57.7108 13.7295 55.7215 14.8049 54.3935L16.5061 52.7592C62.57 88.0338 80.1548 101.514 80.3373 101.629C81.706 102.484 83.2837 102.936 84.8996 102.936H142.311V105.809ZM142.311 97.1895H84.8996C84.3996 97.1895 83.9109 97.0599 83.4794 96.8134L20.6986 48.7319L30.2498 39.5582C36.1096 43.6056 43.7258 43.5453 49.4701 39.7832C56.2398 43.3721 62.0999 45.4761 69.1848 45.4758C72.4829 45.4758 76.0485 45.0178 80.0919 44.0435C80.7703 45.2646 81.3929 46.3935 82.1043 47.6732L74.3462 55.4313C73.2242 56.5532 73.2242 58.3725 74.3462 59.4948C75.4687 60.6167 77.2871 60.6165 78.4097 59.4948L85.0547 52.8497C86.5249 55.3362 88.0937 57.8085 89.7957 60.0921L85.8385 64.0516C84.7168 65.1739 84.7174 66.9931 85.8397 68.1151C86.9622 69.2368 88.7806 69.2362 89.9032 68.114L93.5265 64.4886C95.6917 66.6923 97.9526 68.4082 100.345 69.6574L97.3317 72.6705C96.2097 73.7925 96.2097 75.6118 97.3317 76.734C98.4543 77.856 100.273 77.8557 101.395 76.734L106.355 71.7738C109.204 72.3361 112.282 72.3812 115.531 71.9016C122.182 70.9187 129.044 72.9848 134.357 77.5707C139.412 81.9327 142.311 88.0364 142.311 94.3163V97.1895Z"/><path fill="#fff" d="M0.95166 111.555C0.95166 113.142 2.23826 114.428 3.82482 114.428H63.0119C64.5984 114.428 65.885 113.142 65.885 111.555C65.885 109.969 64.5984 108.682 63.0119 108.682H3.82482C2.23826 108.682 0.95166 109.969 0.95166 111.555Z"/><path fill="#fff" d="M63.0119 120.175H34.2803C32.6937 120.175 31.4071 121.461 31.4071 123.048C31.4071 124.634 32.6937 125.921 34.2803 125.921H63.0119C64.5984 125.921 65.885 124.634 65.885 123.048C65.885 121.461 64.5984 120.175 63.0119 120.175Z"/><path fill="#fff" d="M103.236 131.667C104.823 131.667 106.109 130.381 106.109 128.794C106.109 127.208 104.823 125.921 103.236 125.921H74.5045C72.9179 125.921 71.6313 127.208 71.6313 128.794C71.6313 130.381 72.9179 131.667 74.5045 131.667H103.236Z"/><path fill="#fff" d="M145.184 120.175H114.729C113.142 120.175 111.856 121.461 111.856 123.048C111.856 124.634 113.142 125.921 114.729 125.921H145.184C146.771 125.921 148.057 124.634 148.057 123.048C148.057 121.461 146.771 120.175 145.184 120.175Z"/></g><defs><clipPath id="clip0"><rect width="147.106" height="147.106" fill="#fff" transform="translate(0.95166 0.95166)"/></clipPath></defs></svg>