<svg xmlns="http://www.w3.org/2000/svg" width="1640" height="1251" fill="none" viewBox="0 0 1640 1251"><g opacity=".2"><path fill="url(#paint0_linear)" d="M441.648 1199.48L441.648 1213.66L429.369 1220.75L417.09 1213.66L417.09 1199.48L429.369 1192.39L441.648 1199.48Z"/><path fill="url(#paint1_linear)" d="M456.117 1224.54L456.117 1238.72L443.837 1245.81L431.558 1238.72L431.558 1224.54L443.837 1217.45L456.117 1224.54Z"/><path fill="url(#paint2_linear)" d="M470.935 1199.28L470.935 1213.46L458.656 1220.55L446.376 1213.46L446.376 1199.28L458.656 1192.19L470.935 1199.28Z"/></g><g opacity=".2"><path fill="url(#paint3_linear)" d="M73.9039 20.2476L70.2341 33.9435L56.5382 37.6133L46.5121 27.5872L50.1819 13.8914L63.8778 10.2216L73.9039 20.2476Z"/><path fill="url(#paint4_linear)" d="M81.3933 48.1983L77.7235 61.8942L64.0276 65.564L54.0015 55.5379L57.6713 41.842L71.3672 38.1722L81.3933 48.1983Z"/><path fill="url(#paint5_linear)" d="M102.245 27.6322L98.5754 41.3281L84.8795 44.9979L74.8534 34.9718L78.5232 21.2759L92.2191 17.6061L102.245 27.6322Z"/></g><g opacity=".2"><path fill="url(#paint6_linear)" d="M442.857 233.906L430.578 240.996L418.298 233.906L418.298 219.727L430.578 212.638L442.857 219.727L442.857 233.906Z"/><path fill="url(#paint7_linear)" d="M428.389 258.966L416.109 266.056L403.83 258.966L403.83 244.787L416.109 237.698L428.389 244.787L428.389 258.966Z"/><path fill="url(#paint8_linear)" d="M457.676 259.168L445.396 266.258L433.117 259.168L433.117 244.989L445.396 237.9L457.676 244.989L457.676 259.168Z"/></g><g opacity=".2"><path fill="url(#paint9_linear)" d="M975.184 248.481L961.488 244.811L957.819 231.115L967.845 221.089L981.541 224.759L985.21 238.455L975.184 248.481Z"/><path fill="url(#paint10_linear)" d="M947.233 255.97L933.538 252.3L929.868 238.604L939.894 228.578L953.59 232.248L957.26 245.944L947.233 255.97Z"/><path fill="url(#paint11_linear)" d="M967.8 276.822L954.104 273.152L950.434 259.456L960.46 249.43L974.156 253.1L977.826 266.796L967.8 276.822Z"/></g><g opacity=".2"><path fill="url(#paint12_linear)" d="M1095.11 1076.94L1082.3 1083.02L1070.63 1074.96L1071.78 1060.83L1084.59 1054.75L1096.26 1062.81L1095.11 1076.94Z"/><path fill="url(#paint13_linear)" d="M1078.66 1100.75L1065.85 1106.83L1054.18 1098.77L1055.33 1084.63L1068.14 1078.56L1079.81 1086.62L1078.66 1100.75Z"/><path fill="url(#paint14_linear)" d="M1107.84 1103.32L1095.02 1109.4L1083.36 1101.34L1084.5 1087.2L1097.32 1081.13L1108.98 1089.19L1107.84 1103.32Z"/></g><g opacity=".2"><path fill="url(#paint15_linear)" d="M1613.11 1131.94L1600.3 1138.02L1588.63 1129.96L1589.78 1115.83L1602.59 1109.75L1614.26 1117.81L1613.11 1131.94Z"/><path fill="url(#paint16_linear)" d="M1596.66 1155.75L1583.85 1161.83L1572.18 1153.77L1573.33 1139.63L1586.14 1133.56L1597.81 1141.62L1596.66 1155.75Z"/><path fill="url(#paint17_linear)" d="M1625.84 1158.32L1613.02 1164.4L1601.36 1156.34L1602.5 1142.2L1615.32 1136.13L1626.98 1144.19L1625.84 1158.32Z"/></g><g opacity=".2"><path fill="url(#paint18_linear)" d="M1552 660.112L1544.92 672.391L1530.74 672.391L1523.65 660.112L1530.74 647.832L1544.92 647.832L1552 660.112Z"/><path fill="url(#paint19_linear)" d="M1577.47 674.58L1570.38 686.859L1556.2 686.859L1549.11 674.58L1556.2 662.301L1570.38 662.301L1577.47 674.58Z"/><path fill="url(#paint20_linear)" d="M1526.36 674.179L1519.27 686.458L1505.09 686.458L1498 674.179L1505.09 661.9L1519.27 661.9L1526.36 674.179Z"/><path fill="url(#paint21_linear)" d="M1551.82 688.647L1544.73 700.927L1530.55 700.927L1523.46 688.647L1530.55 676.368L1544.73 676.368L1551.82 688.647Z"/></g><g opacity=".2"><path fill="url(#paint22_linear)" d="M12.5225 669.265L26.7016 669.265L33.7911 681.545L26.7016 693.824L12.5225 693.824L5.43302 681.545L12.5225 669.265Z"/><path fill="url(#paint23_linear)" d="M12.3203 639.979L26.4994 639.979L33.5889 652.258L26.4994 664.537L12.3203 664.537L5.23082 652.258L12.3203 639.979Z"/><path fill="url(#paint24_linear)" d="M37.5288 684.443L51.7078 684.443L58.7973 696.722L51.7078 709.002L37.5288 709.002L30.4393 696.722L37.5288 684.443Z"/><path fill="url(#paint25_linear)" d="M37.3264 655.156L51.5054 655.156L58.595 667.435L51.5054 679.715L37.3264 679.715L30.2369 667.435L37.3264 655.156Z"/></g><defs><linearGradient id="paint0_linear" x1="447.904" x2="428.905" y1="1210.32" y2="1188.2" gradientUnits="userSpaceOnUse"><stop stop-color="#FF9F47"/><stop offset="1" stop-color="#FF6320"/></linearGradient><linearGradient id="paint1_linear" x1="462.372" x2="443.373" y1="1235.38" y2="1213.26" gradientUnits="userSpaceOnUse"><stop stop-color="#FF9F47"/><stop offset="1" stop-color="#FF6320"/></linearGradient><linearGradient id="paint2_linear" x1="477.191" x2="458.191" y1="1210.11" y2="1188" gradientUnits="userSpaceOnUse"><stop stop-color="#FF9F47"/><stop offset="1" stop-color="#FF6320"/></linearGradient><linearGradient id="paint3_linear" x1="77.142" x2="64.514" y1="32.332" y2="6.054" gradientUnits="userSpaceOnUse"><stop stop-color="#FF9F47"/><stop offset="1" stop-color="#FF6320"/></linearGradient><linearGradient id="paint4_linear" x1="84.631" x2="72.003" y1="60.283" y2="34.004" gradientUnits="userSpaceOnUse"><stop stop-color="#FF9F47"/><stop offset="1" stop-color="#FF6320"/></linearGradient><linearGradient id="paint5_linear" x1="105.483" x2="92.855" y1="39.717" y2="13.438" gradientUnits="userSpaceOnUse"><stop stop-color="#FF9F47"/><stop offset="1" stop-color="#FF6320"/></linearGradient><linearGradient id="paint6_linear" x1="436.602" x2="446.254" y1="244.741" y2="217.23" gradientUnits="userSpaceOnUse"><stop stop-color="#FF9F47"/><stop offset="1" stop-color="#FF6320"/></linearGradient><linearGradient id="paint7_linear" x1="422.133" x2="431.786" y1="269.801" y2="242.29" gradientUnits="userSpaceOnUse"><stop stop-color="#FF9F47"/><stop offset="1" stop-color="#FF6320"/></linearGradient><linearGradient id="paint8_linear" x1="451.42" x2="461.072" y1="270.003" y2="242.492" gradientUnits="userSpaceOnUse"><stop stop-color="#FF9F47"/><stop offset="1" stop-color="#FF6320"/></linearGradient><linearGradient id="paint9_linear" x1="963.1" x2="989.378" y1="251.719" y2="239.091" gradientUnits="userSpaceOnUse"><stop stop-color="#FF9F47"/><stop offset="1" stop-color="#FF6320"/></linearGradient><linearGradient id="paint10_linear" x1="935.149" x2="961.427" y1="259.208" y2="246.58" gradientUnits="userSpaceOnUse"><stop stop-color="#FF9F47"/><stop offset="1" stop-color="#FF6320"/></linearGradient><linearGradient id="paint11_linear" x1="955.715" x2="981.994" y1="280.06" y2="267.432" gradientUnits="userSpaceOnUse"><stop stop-color="#FF9F47"/><stop offset="1" stop-color="#FF6320"/></linearGradient><linearGradient id="paint12_linear" x1="1088" x2="1099.84" y1="1087.24" y2="1060.6" gradientUnits="userSpaceOnUse"><stop stop-color="#FF9F47"/><stop offset="1" stop-color="#FF6320"/></linearGradient><linearGradient id="paint13_linear" x1="1071.55" x2="1083.4" y1="1111.05" y2="1084.41" gradientUnits="userSpaceOnUse"><stop stop-color="#FF9F47"/><stop offset="1" stop-color="#FF6320"/></linearGradient><linearGradient id="paint14_linear" x1="1100.72" x2="1112.57" y1="1113.62" y2="1086.98" gradientUnits="userSpaceOnUse"><stop stop-color="#FF9F47"/><stop offset="1" stop-color="#FF6320"/></linearGradient><linearGradient id="paint15_linear" x1="1606" x2="1617.84" y1="1142.24" y2="1115.6" gradientUnits="userSpaceOnUse"><stop stop-color="#FF9F47"/><stop offset="1" stop-color="#FF6320"/></linearGradient><linearGradient id="paint16_linear" x1="1589.55" x2="1601.4" y1="1166.05" y2="1139.41" gradientUnits="userSpaceOnUse"><stop stop-color="#FF9F47"/><stop offset="1" stop-color="#FF6320"/></linearGradient><linearGradient id="paint17_linear" x1="1618.72" x2="1630.57" y1="1168.62" y2="1141.98" gradientUnits="userSpaceOnUse"><stop stop-color="#FF9F47"/><stop offset="1" stop-color="#FF6320"/></linearGradient><linearGradient id="paint18_linear" x1="1552" x2="1546.61" y1="672.623" y2="643.971" gradientUnits="userSpaceOnUse"><stop stop-color="#FF9F47"/><stop offset="1" stop-color="#FF6320"/></linearGradient><linearGradient id="paint19_linear" x1="1577.47" x2="1572.07" y1="687.091" y2="658.439" gradientUnits="userSpaceOnUse"><stop stop-color="#FF9F47"/><stop offset="1" stop-color="#FF6320"/></linearGradient><linearGradient id="paint20_linear" x1="1526.36" x2="1520.96" y1="686.69" y2="658.038" gradientUnits="userSpaceOnUse"><stop stop-color="#FF9F47"/><stop offset="1" stop-color="#FF6320"/></linearGradient><linearGradient id="paint21_linear" x1="1551.82" x2="1546.43" y1="701.158" y2="672.507" gradientUnits="userSpaceOnUse"><stop stop-color="#FF9F47"/><stop offset="1" stop-color="#FF6320"/></linearGradient><linearGradient id="paint22_linear" x1="23.357" x2="1.243" y1="663.01" y2="682.009" gradientUnits="userSpaceOnUse"><stop stop-color="#FF9F47"/><stop offset="1" stop-color="#FF6320"/></linearGradient><linearGradient id="paint23_linear" x1="23.155" x2="1.04" y1="633.723" y2="652.722" gradientUnits="userSpaceOnUse"><stop stop-color="#FF9F47"/><stop offset="1" stop-color="#FF6320"/></linearGradient><linearGradient id="paint24_linear" x1="48.364" x2="26.249" y1="678.187" y2="697.186" gradientUnits="userSpaceOnUse"><stop stop-color="#FF9F47"/><stop offset="1" stop-color="#FF6320"/></linearGradient><linearGradient id="paint25_linear" x1="48.161" x2="26.047" y1="648.9" y2="667.9" gradientUnits="userSpaceOnUse"><stop stop-color="#FF9F47"/><stop offset="1" stop-color="#FF6320"/></linearGradient></defs></svg>