<svg xmlns="http://www.w3.org/2000/svg" width="149" height="148" fill="none" viewBox="0 0 149 148"><g clip-path="url(#clip0)"><path fill="#fff" d="M3.15301 107.295L13.3612 109.741C13.5825 109.794 13.8082 109.821 14.0351 109.821H72.3058C73.8939 109.821 75.1811 108.54 75.1811 106.962V29.9709C75.1811 28.3928 73.8939 27.1118 72.3058 27.1118C70.7177 27.1118 69.4306 28.3928 69.4306 29.9709V74.6488H66.6699C61.1272 74.6488 55.598 73.4204 50.5753 71.0907L48.128 29.8033C48.0337 28.2275 46.669 27.0225 45.0877 27.1174C43.5029 27.2101 42.2933 28.5637 42.3876 30.1395L44.8136 71.0583L24.9296 79.2244C24.3691 79.4545 23.7918 79.6265 23.2044 79.7404C23.1954 79.7426 23.1876 79.7437 23.1786 79.7449C22.6193 79.8521 22.0487 79.9068 21.4714 79.9068C21.4669 79.9068 21.4624 79.9068 21.4579 79.9068L17.0507 79.9012C17.044 79.9012 17.0373 79.9012 17.0294 79.9012C10.7106 79.9012 5.05673 83.8804 2.95759 89.8096L1.11452 95.0161C1.00557 95.3244 0.95503 95.6449 0.95503 95.9654C0.953906 95.9654 0.952783 95.9654 0.95166 95.9654V104.517C0.95166 105.838 1.8614 106.986 3.15301 107.295ZM14.3765 104.102L6.70213 102.264V99.6632L13.0984 101.318C13.3343 101.38 13.578 101.41 13.8228 101.41H69.4306V104.102H14.3765ZM8.38123 91.7081C9.67171 88.064 13.1456 85.6182 17.0294 85.6182H17.0429L21.4501 85.6249H21.4714C21.8859 85.6249 22.2969 85.6036 22.7069 85.5701L27.1848 90.024C27.7464 90.5813 28.482 90.8605 29.2177 90.8605C29.9534 90.8605 30.6901 90.5813 31.2506 90.024C32.3737 88.9072 32.3737 87.0968 31.2506 85.98L28.9987 83.7397L32.5882 82.2655L37.0999 86.7517C37.6615 87.3101 38.3971 87.5893 39.1328 87.5893C39.8684 87.5893 40.6041 87.3101 41.1657 86.7517C42.2888 85.636 42.2888 83.8257 41.1657 82.7089L38.3432 79.9023L41.0432 78.7933L45.5043 83.2293C46.0659 83.7877 46.8016 84.0669 47.5372 84.0669C48.2729 84.0669 49.0085 83.7877 49.5701 83.2293C50.6932 82.1136 50.6932 80.3033 49.5701 79.1865L46.7982 76.4302L47.6911 76.0627C53.5909 78.8816 60.1231 80.3669 66.6699 80.3669H69.4306V95.6918H14.1901L7.57706 93.9808L8.38123 91.7081Z"/><path fill="#fff" d="M79.3108 108.02C79.3714 108.341 79.4882 108.645 79.6489 108.922C79.6489 108.922 79.6477 108.923 79.6466 108.923L83.9471 116.328C84.4705 117.231 85.4297 117.759 86.4371 117.759C86.7078 117.759 86.9818 117.72 87.2514 117.642L97.3214 114.683C97.5382 114.62 97.7482 114.53 97.9437 114.417L144.42 87.7346C146.151 86.7417 147.389 85.138 147.905 83.2193C148.422 81.3006 148.157 79.296 147.159 77.5761L145.231 74.2569L134.77 56.2416L120.378 17.8234C119.825 16.3436 118.169 15.5909 116.681 16.1426C115.193 16.6931 114.436 18.3393 114.99 19.8191L128.618 56.1958L125.842 57.7884C121.136 60.49 115.849 62.163 110.442 62.6789L95.2582 28.8072C94.6113 27.3654 92.912 26.7165 91.462 27.3598C90.0121 28.0031 89.3595 29.6928 90.0064 31.1357L105.313 65.2811L91.9944 82.5045C91.6271 82.9781 91.2183 83.4114 90.7713 83.8C90.7589 83.809 90.7477 83.8179 90.7365 83.828C90.303 84.1999 89.8346 84.5327 89.3314 84.8197L85.5116 87.0064C80.0274 90.1446 77.124 96.41 78.2899 102.595L79.3108 108.02ZM142.351 81.7395C142.231 82.1829 141.946 82.5537 141.545 82.7838L95.3649 109.296L87.7939 111.519L86.4865 109.267L92.857 107.52C93.0928 107.454 93.3197 107.36 93.5309 107.24L141.689 79.5919L142.179 80.4351C142.41 80.8327 142.471 81.2962 142.351 81.7395ZM88.379 91.9628L92.1988 89.7761C92.565 89.5673 92.9176 89.3417 93.2613 89.1049L99.3779 90.7343C99.6273 90.8013 99.8777 90.8326 100.124 90.8326C101.394 90.8326 102.555 89.9905 102.9 88.7129C103.311 87.1884 102.4 85.6204 100.866 85.2117L97.7887 84.392L100.157 81.3297L106.32 82.9714C106.569 83.0384 106.82 83.0708 107.066 83.0708C108.335 83.0708 109.497 82.2276 109.841 80.9499C110.252 79.4255 109.342 77.8575 107.808 77.4487L103.952 76.4213L105.734 74.1195L111.828 75.7434C112.077 75.8093 112.328 75.8417 112.574 75.8417C113.843 75.8417 115.005 74.9985 115.349 73.7208C115.76 72.1964 114.85 70.6284 113.316 70.2196L109.529 69.2112L110.118 68.4495C116.645 67.9581 123.048 65.9959 128.719 62.7404L131.109 61.3678L138.815 74.64L90.9746 102.105L84.3885 103.91L83.9415 101.542C83.2249 97.7401 85.0085 93.8915 88.379 91.9628Z"/><path fill="#fff" d="M32.1951 121.717H3.8269C2.23878 121.717 0.95166 122.998 0.95166 124.576C0.95166 126.155 2.23878 127.435 3.8269 127.435H32.1951C33.7833 127.435 35.0704 126.155 35.0704 124.576C35.0704 122.998 33.7833 121.717 32.1951 121.717Z"/><path fill="#fff" d="M46.6667 121.717C45.9109 121.717 45.1696 122.023 44.6339 122.554C44.0992 123.086 43.7915 123.823 43.7915 124.576C43.7915 125.327 44.0992 126.066 44.6339 126.597C45.1696 127.129 45.9109 127.435 46.6667 127.435C47.4237 127.435 48.165 127.129 48.6996 126.597C49.2342 126.066 49.542 125.327 49.542 124.576C49.542 123.823 49.2342 123.086 48.6996 122.554C48.165 122.023 47.4237 121.717 46.6667 121.717Z"/><path fill="#fff" d="M145.275 115.123H116.907C115.319 115.123 114.032 116.404 114.032 117.982C114.032 119.561 115.319 120.841 116.907 120.841H145.275C146.863 120.841 148.15 119.561 148.15 117.982C148.15 116.404 146.863 115.123 145.275 115.123Z"/><path fill="#fff" d="M102.925 126.577H74.5565C72.9684 126.577 71.6813 127.858 71.6813 129.436C71.6813 131.015 72.9684 132.295 74.5565 132.295H102.925C104.513 132.295 105.8 131.015 105.8 129.436C105.8 127.858 104.513 126.577 102.925 126.577Z"/></g><defs><clipPath id="clip0"><rect width="147.212" height="146.097" fill="#fff" transform="translate(0.95166 0.95166)"/></clipPath></defs></svg>