<svg xmlns="http://www.w3.org/2000/svg" width="727" height="362" fill="none" viewBox="0 0 727 362"><g opacity=".3"><path fill="url(#paint0_linear)" d="M57.8187 332.721L50.7292 320.442L57.8188 308.163L71.9978 308.163L79.0873 320.442L71.9978 332.721L57.8187 332.721Z"/><path fill="url(#paint1_linear)" d="M32.7587 318.253L25.6692 305.974L32.7587 293.694L46.9377 293.694L54.0272 305.974L46.9377 318.253L32.7587 318.253Z"/><path fill="url(#paint2_linear)" d="M32.5566 347.54L25.4671 335.261L32.5566 322.981L46.7356 322.981L53.8251 335.261L46.7356 347.54L32.5566 347.54Z"/></g><g opacity=".3"><path fill="url(#paint3_linear)" d="M352.262 60.4404L345.173 48.161L352.262 35.8816L366.441 35.8816L373.531 48.161L366.441 60.4404L352.262 60.4404Z"/><path fill="url(#paint4_linear)" d="M327.202 45.972L320.113 33.6926L327.202 21.4132L341.381 21.4132L348.471 33.6926L341.381 45.972L327.202 45.972Z"/><path fill="url(#paint5_linear)" d="M327 75.259L319.911 62.9796L327 50.7002L341.179 50.7002L348.269 62.9796L341.179 75.259L327 75.259Z"/></g><g opacity=".3"><path fill="url(#paint6_linear)" d="M673.744 130.804L680.833 118.525L695.012 118.525L702.102 130.804L695.012 143.084L680.833 143.084L673.744 130.804Z"/><path fill="url(#paint7_linear)" d="M673.744 101.868L680.833 89.5883L695.012 89.5883L702.102 101.868L695.012 114.147L680.833 114.147L673.744 101.868Z"/><path fill="url(#paint8_linear)" d="M648.279 116.336L655.369 104.057L669.548 104.057L676.637 116.336L669.548 128.616L655.369 128.616L648.279 116.336Z"/></g><defs><linearGradient id="paint0_linear" x1="46.984" x2="74.495" y1="326.466" y2="336.118" gradientUnits="userSpaceOnUse"><stop stop-color="#FF9F47"/><stop offset="1" stop-color="#FF6320"/></linearGradient><linearGradient id="paint1_linear" x1="21.924" x2="49.435" y1="311.998" y2="321.65" gradientUnits="userSpaceOnUse"><stop stop-color="#FF9F47"/><stop offset="1" stop-color="#FF6320"/></linearGradient><linearGradient id="paint2_linear" x1="21.722" x2="49.233" y1="341.284" y2="350.937" gradientUnits="userSpaceOnUse"><stop stop-color="#FF9F47"/><stop offset="1" stop-color="#FF6320"/></linearGradient><linearGradient id="paint3_linear" x1="341.427" x2="368.939" y1="54.185" y2="63.837" gradientUnits="userSpaceOnUse"><stop stop-color="#FF9F47"/><stop offset="1" stop-color="#FF6320"/></linearGradient><linearGradient id="paint4_linear" x1="316.367" x2="343.878" y1="39.717" y2="49.369" gradientUnits="userSpaceOnUse"><stop stop-color="#FF9F47"/><stop offset="1" stop-color="#FF6320"/></linearGradient><linearGradient id="paint5_linear" x1="316.165" x2="343.676" y1="69.004" y2="78.656" gradientUnits="userSpaceOnUse"><stop stop-color="#FF9F47"/><stop offset="1" stop-color="#FF6320"/></linearGradient><linearGradient id="paint6_linear" x1="673.744" x2="679.14" y1="118.294" y2="146.945" gradientUnits="userSpaceOnUse"><stop stop-color="#FF9F47"/><stop offset="1" stop-color="#FF6320"/></linearGradient><linearGradient id="paint7_linear" x1="673.744" x2="679.14" y1="89.357" y2="118.008" gradientUnits="userSpaceOnUse"><stop stop-color="#FF9F47"/><stop offset="1" stop-color="#FF6320"/></linearGradient><linearGradient id="paint8_linear" x1="648.279" x2="653.676" y1="103.825" y2="132.477" gradientUnits="userSpaceOnUse"><stop stop-color="#FF9F47"/><stop offset="1" stop-color="#FF6320"/></linearGradient></defs></svg>