<svg xmlns="http://www.w3.org/2000/svg" width="376" height="148" fill="none" viewBox="0 0 376 148"><path fill="url(#paint0_linear)" fill-rule="evenodd" d="M77.7578 0.000732422L68.6216 57.9031H84.0859L88.4761 28.5959C88.7134 26.6448 88.8716 25.0891 88.9507 23.929C89.0562 22.7424 89.1089 21.6218 89.1089 20.5671V18.9456C89.4517 20.343 89.8604 21.7405 90.335 23.1379C90.8359 24.5354 91.561 26.302 92.5103 28.4377L105.483 57.9031H122.49L131.626 0.000732422H116.162L111.692 28.4377C111.455 30.2571 111.271 31.8127 111.139 33.1047C111.033 34.3704 110.98 35.5305 110.98 36.5852V38.0486C110.453 35.7019 109.517 32.9597 108.172 29.822C107.935 29.2419 107.764 28.8333 107.658 28.5959L95.437 0.000732422H77.7578ZM144.243 0.000732422L135.067 57.9031H150.848L160.023 0.000732422H144.243ZM172.68 0.000732422L163.543 57.9031H178.929L182.963 32.3928L199.179 57.9031H217.491L197.794 28.5959L226.311 0.000732422H206.298L184.268 24.2058L188.184 0.000732422H172.68ZM256.29 45.0095H238.374L239.916 35.3987H256.606L258.544 22.8215H241.933L243.396 13.3689H261.313L263.409 0.000732422H230.028L220.892 57.9031H222.497L211.099 60.72L187.764 66.8682L123.02 83.8759C119.379 84.7798 115.812 85.7313 112.308 86.6659C93.8047 91.6013 77.0855 96.0608 60.8807 90.4953C34.6823 79.1411 35.1518 49.6014 54.6832 18.1772C20.1512 46.7747 -41.9878 138.22 42.0536 147.455C52.7583 148.868 71.8202 145.099 92.5253 136.359L187.764 97.1382L375.613 20.0618L255.551 49.7341L256.29 45.0095Z" clip-rule="evenodd"/><defs><linearGradient id="paint0_linear" x1="353.518" x2="33.852" y1=".001" y2="153.071" gradientUnits="userSpaceOnUse"><stop stop-color="#FF9F47"/><stop offset="1" stop-color="#FF6320"/></linearGradient></defs></svg>